<?xml version="1.0" encoding="UTF-8" standalone="no"?>
<!DOCTYPE svg PUBLIC "-//W3C//DTD SVG 1.1//EN"
 "http://www.w3.org/Graphics/SVG/1.1/DTD/svg11.dtd">
<!-- Generated by graphviz version 2.43.0 (0)
 -->
<!-- Title: BST Pages: 1 -->
<svg width="304pt" height="315pt"
 viewBox="0.00 0.00 303.80 314.60" xmlns="http://www.w3.org/2000/svg" xmlns:xlink="http://www.w3.org/1999/xlink">
<g id="graph0" class="graph" transform="scale(1 1) rotate(0) translate(4 310.6)">
<title>BST</title>
<polygon fill="white" stroke="transparent" points="-4,4 -4,-310.6 299.8,-310.6 299.8,4 -4,4"/>
<!-- n2 -->
<g id="node1" class="node">
<title>n2</title>
<ellipse fill="none" stroke="black" cx="35" cy="-129.6" rx="27" ry="18"/>
<text text-anchor="middle" x="35" y="-125.9" font-family="Arial" font-size="14.00">2</text>
<text text-anchor="middle" x="4" y="-151.4" font-family="Arial" font-size="14.00">0</text>
</g>
<!-- null0 -->
<g id="node10" class="node">
<title>null0</title>
<ellipse fill="black" stroke="black" cx="27" cy="-57.6" rx="1.8" ry="1.8"/>
</g>
<!-- n2&#45;&gt;null0 -->
<g id="edge3" class="edge">
<title>n2&#45;&gt;null0</title>
<path fill="none" stroke="black" d="M33.02,-111.3C31.53,-98.23 29.53,-80.71 28.25,-69.53"/>
<polygon fill="black" stroke="black" points="31.71,-68.95 27.09,-59.41 24.75,-69.74 31.71,-68.95"/>
</g>
<!-- null1 -->
<g id="node11" class="node">
<title>null1</title>
<ellipse fill="black" stroke="black" cx="49" cy="-57.6" rx="1.8" ry="1.8"/>
</g>
<!-- n2&#45;&gt;null1 -->
<g id="edge4" class="edge">
<title>n2&#45;&gt;null1</title>
<path fill="none" stroke="black" d="M38.39,-111.65C41.03,-98.45 44.61,-80.53 46.87,-69.27"/>
<polygon fill="black" stroke="black" points="50.31,-69.91 48.84,-59.42 43.44,-68.54 50.31,-69.91"/>
</g>
<!-- n3 -->
<g id="node2" class="node">
<title>n3</title>
<ellipse fill="none" stroke="black" cx="107" cy="-201.6" rx="27" ry="18"/>
<text text-anchor="middle" x="107" y="-197.9" font-family="Arial" font-size="14.00">3</text>
<text text-anchor="middle" x="76" y="-223.4" font-family="Arial" font-size="14.00">1</text>
</g>
<!-- n3&#45;&gt;n2 -->
<g id="edge2" class="edge">
<title>n3&#45;&gt;n2</title>
<path fill="none" stroke="black" d="M92.43,-186.43C82.25,-176.54 68.48,-163.15 56.97,-151.96"/>
<polygon fill="black" stroke="black" points="59.41,-149.45 49.8,-144.98 54.53,-154.47 59.41,-149.45"/>
</g>
<!-- n10 -->
<g id="node4" class="node">
<title>n10</title>
<ellipse fill="none" stroke="black" cx="107" cy="-129.6" rx="27" ry="18"/>
<text text-anchor="middle" x="107" y="-125.9" font-family="Arial" font-size="14.00">10</text>
<text text-anchor="middle" x="73.5" y="-151.4" font-family="Arial" font-size="14.00">&#45;1</text>
</g>
<!-- n3&#45;&gt;n10 -->
<g id="edge5" class="edge">
<title>n3&#45;&gt;n10</title>
<path fill="none" stroke="black" d="M107,-183.3C107,-175.58 107,-166.31 107,-157.71"/>
<polygon fill="black" stroke="black" points="110.5,-157.7 107,-147.7 103.5,-157.7 110.5,-157.7"/>
</g>
<!-- n9 -->
<g id="node3" class="node">
<title>n9</title>
<ellipse fill="none" stroke="black" cx="101" cy="-57.6" rx="27" ry="18"/>
<text text-anchor="middle" x="101" y="-53.9" font-family="Arial" font-size="14.00">9</text>
<text text-anchor="middle" x="70" y="-79.4" font-family="Arial" font-size="14.00">0</text>
</g>
<!-- null2 -->
<g id="node12" class="node">
<title>null2</title>
<ellipse fill="black" stroke="black" cx="90" cy="-1.8" rx="1.8" ry="1.8"/>
</g>
<!-- n9&#45;&gt;null2 -->
<g id="edge7" class="edge">
<title>n9&#45;&gt;null2</title>
<path fill="none" stroke="black" d="M97.52,-39.58C95.78,-31.07 93.73,-21.02 92.2,-13.58"/>
<polygon fill="black" stroke="black" points="95.62,-12.83 90.19,-3.73 88.77,-14.23 95.62,-12.83"/>
</g>
<!-- null3 -->
<g id="node13" class="node">
<title>null3</title>
<ellipse fill="black" stroke="black" cx="112" cy="-1.8" rx="1.8" ry="1.8"/>
</g>
<!-- n9&#45;&gt;null3 -->
<g id="edge8" class="edge">
<title>n9&#45;&gt;null3</title>
<path fill="none" stroke="black" d="M104.48,-39.58C106.22,-31.07 108.27,-21.02 109.8,-13.58"/>
<polygon fill="black" stroke="black" points="113.23,-14.23 111.81,-3.73 106.38,-12.83 113.23,-14.23"/>
</g>
<!-- n10&#45;&gt;n9 -->
<g id="edge6" class="edge">
<title>n10&#45;&gt;n9</title>
<path fill="none" stroke="black" d="M105.52,-111.3C104.86,-103.58 104.06,-94.31 103.32,-85.71"/>
<polygon fill="black" stroke="black" points="106.81,-85.37 102.47,-75.7 99.83,-85.97 106.81,-85.37"/>
</g>
<!-- null4 -->
<g id="node14" class="node">
<title>null4</title>
<ellipse fill="black" stroke="black" cx="148" cy="-57.6" rx="1.8" ry="1.8"/>
</g>
<!-- n10&#45;&gt;null4 -->
<g id="edge9" class="edge">
<title>n10&#45;&gt;null4</title>
<path fill="none" stroke="black" d="M116.51,-112.36C124.48,-98.75 135.61,-79.75 142.28,-68.37"/>
<polygon fill="black" stroke="black" points="145.48,-69.83 147.51,-59.43 139.44,-66.29 145.48,-69.83"/>
</g>
<!-- n20 -->
<g id="node5" class="node">
<title>n20</title>
<ellipse fill="none" stroke="black" cx="143" cy="-273.6" rx="27" ry="18"/>
<text text-anchor="middle" x="143" y="-269.9" font-family="Arial" font-size="14.00">20</text>
<text text-anchor="middle" x="112" y="-295.4" font-family="Arial" font-size="14.00">0</text>
</g>
<!-- n20&#45;&gt;n3 -->
<g id="edge1" class="edge">
<title>n20&#45;&gt;n3</title>
<path fill="none" stroke="black" d="M134.65,-256.36C130.29,-247.88 124.85,-237.31 119.96,-227.8"/>
<polygon fill="black" stroke="black" points="122.99,-226.04 115.3,-218.75 116.77,-229.24 122.99,-226.04"/>
</g>
<!-- n30 -->
<g id="node7" class="node">
<title>n30</title>
<ellipse fill="none" stroke="black" cx="179" cy="-201.6" rx="27" ry="18"/>
<text text-anchor="middle" x="179" y="-197.9" font-family="Arial" font-size="14.00">30</text>
<text text-anchor="middle" x="148" y="-223.4" font-family="Arial" font-size="14.00">1</text>
</g>
<!-- n20&#45;&gt;n30 -->
<g id="edge10" class="edge">
<title>n20&#45;&gt;n30</title>
<path fill="none" stroke="black" d="M151.35,-256.36C155.71,-247.88 161.15,-237.31 166.04,-227.8"/>
<polygon fill="black" stroke="black" points="169.23,-229.24 170.7,-218.75 163.01,-226.04 169.23,-229.24"/>
</g>
<!-- n25 -->
<g id="node6" class="node">
<title>n25</title>
<ellipse fill="none" stroke="black" cx="179" cy="-129.6" rx="27" ry="18"/>
<text text-anchor="middle" x="179" y="-125.9" font-family="Arial" font-size="14.00">25</text>
<text text-anchor="middle" x="148" y="-151.4" font-family="Arial" font-size="14.00">0</text>
</g>
<!-- null5 -->
<g id="node15" class="node">
<title>null5</title>
<ellipse fill="black" stroke="black" cx="174" cy="-57.6" rx="1.8" ry="1.8"/>
</g>
<!-- n25&#45;&gt;null5 -->
<g id="edge12" class="edge">
<title>n25&#45;&gt;null5</title>
<path fill="none" stroke="black" d="M177.76,-111.3C176.83,-98.23 175.58,-80.71 174.78,-69.53"/>
<polygon fill="black" stroke="black" points="178.26,-69.13 174.06,-59.41 171.28,-69.63 178.26,-69.13"/>
</g>
<!-- null6 -->
<g id="node16" class="node">
<title>null6</title>
<ellipse fill="black" stroke="black" cx="196" cy="-57.6" rx="1.8" ry="1.8"/>
</g>
<!-- n25&#45;&gt;null6 -->
<g id="edge13" class="edge">
<title>n25&#45;&gt;null6</title>
<path fill="none" stroke="black" d="M183.12,-111.65C186.32,-98.45 190.67,-80.53 193.41,-69.27"/>
<polygon fill="black" stroke="black" points="196.84,-69.96 195.8,-59.42 190.04,-68.31 196.84,-69.96"/>
</g>
<!-- n30&#45;&gt;n25 -->
<g id="edge11" class="edge">
<title>n30&#45;&gt;n25</title>
<path fill="none" stroke="black" d="M179,-183.3C179,-175.58 179,-166.31 179,-157.71"/>
<polygon fill="black" stroke="black" points="182.5,-157.7 179,-147.7 175.5,-157.7 182.5,-157.7"/>
</g>
<!-- n40 -->
<g id="node9" class="node">
<title>n40</title>
<ellipse fill="none" stroke="black" cx="251" cy="-129.6" rx="27" ry="18"/>
<text text-anchor="middle" x="251" y="-125.9" font-family="Arial" font-size="14.00">40</text>
<text text-anchor="middle" x="217.5" y="-151.4" font-family="Arial" font-size="14.00">&#45;1</text>
</g>
<!-- n30&#45;&gt;n40 -->
<g id="edge14" class="edge">
<title>n30&#45;&gt;n40</title>
<path fill="none" stroke="black" d="M193.57,-186.43C203.75,-176.54 217.52,-163.15 229.03,-151.96"/>
<polygon fill="black" stroke="black" points="231.47,-154.47 236.2,-144.98 226.59,-149.45 231.47,-154.47"/>
</g>
<!-- n35 -->
<g id="node8" class="node">
<title>n35</title>
<ellipse fill="none" stroke="black" cx="247" cy="-57.6" rx="27" ry="18"/>
<text text-anchor="middle" x="247" y="-53.9" font-family="Arial" font-size="14.00">35</text>
<text text-anchor="middle" x="216" y="-79.4" font-family="Arial" font-size="14.00">0</text>
</g>
<!-- null7 -->
<g id="node17" class="node">
<title>null7</title>
<ellipse fill="black" stroke="black" cx="236" cy="-1.8" rx="1.8" ry="1.8"/>
</g>
<!-- n35&#45;&gt;null7 -->
<g id="edge16" class="edge">
<title>n35&#45;&gt;null7</title>
<path fill="none" stroke="black" d="M243.52,-39.58C241.78,-31.07 239.73,-21.02 238.2,-13.58"/>
<polygon fill="black" stroke="black" points="241.62,-12.83 236.19,-3.73 234.77,-14.23 241.62,-12.83"/>
</g>
<!-- null8 -->
<g id="node18" class="node">
<title>null8</title>
<ellipse fill="black" stroke="black" cx="258" cy="-1.8" rx="1.8" ry="1.8"/>
</g>
<!-- n35&#45;&gt;null8 -->
<g id="edge17" class="edge">
<title>n35&#45;&gt;null8</title>
<path fill="none" stroke="black" d="M250.48,-39.58C252.22,-31.07 254.27,-21.02 255.8,-13.58"/>
<polygon fill="black" stroke="black" points="259.23,-14.23 257.81,-3.73 252.38,-12.83 259.23,-14.23"/>
</g>
<!-- n40&#45;&gt;n35 -->
<g id="edge15" class="edge">
<title>n40&#45;&gt;n35</title>
<path fill="none" stroke="black" d="M250.01,-111.3C249.57,-103.58 249.04,-94.31 248.55,-85.71"/>
<polygon fill="black" stroke="black" points="252.04,-85.49 247.98,-75.7 245.05,-85.89 252.04,-85.49"/>
</g>
<!-- null9 -->
<g id="node19" class="node">
<title>null9</title>
<ellipse fill="black" stroke="black" cx="294" cy="-57.6" rx="1.8" ry="1.8"/>
</g>
<!-- n40&#45;&gt;null9 -->
<g id="edge18" class="edge">
<title>n40&#45;&gt;null9</title>
<path fill="none" stroke="black" d="M260.76,-112.72C269.2,-98.97 281.13,-79.55 288.16,-68.1"/>
<polygon fill="black" stroke="black" points="291.23,-69.8 293.48,-59.44 285.26,-66.13 291.23,-69.8"/>
</g>
</g>
</svg>
